Coordinates
version=1
nRows=14
nColumns=28
inDegrees=yes

Units are S.I. units (second, meters, Newtons, ...)
Angles are in degrees.

endheader
time	pelvis_tilt	pelvis_list	pelvis_rotation	pelvis_tx	pelvis_ty	pelvis_tz	hip_flexion_r	hip_adduction_r	hip_rotation_r	knee_angle_r	ankle_angle_r	subtalar_angle_r	mtp_angle_r	hip_flexion_l	hip_adduction_l	hip_rotation_l	knee_angle_l	socket_flexion	socket_adduction	socket_rotation	socket_tx	socket_ty	socket_tz	foot_flex	lumbar_extension	lumbar_bending	lumbar_rotation
      0.00000000	     -0.86224634	     -7.52353131	     -8.41565913	     -0.87953114	      0.99282880	      0.27436151	    -24.78313972	      9.98229899	      5.13047850	     -2.63095807	      4.30645159	    -12.36657382	     10.82384140	     25.51591887	    -10.97640936	     10.38868478	      1.73429757	      5.89277239	      0.00000000	      0.00000000	      0.00000000	     -0.00236468	      0.00000000	     -0.51880281	    -11.39924554	      5.88119787	     10.48451972
      0.00416667	     -0.92221261	     -7.56048028	     -8.35067034	     -0.87392725	      0.99219965	      0.27399642	    -24.89986187	      9.99188703	      5.18615927	     -2.86024028	      4.26209431	    -12.37246039	     10.82349596	     25.35339838	    -10.90156647	     10.38491029	      1.71879558	      5.85729281	      0.00000000	      0.00000000	      0.00000000	     -0.00267211	      0.00000000	     -0.60959709	    -11.24605656	      5.92509349	     10.48507623
      0.00833333	     -0.95824304	     -7.66814878	     -8.43917567	     -0.86837211	      0.99166862	      0.27375974	    -24.85766992	     10.01179330	      5.13243518	     -3.48768746	      4.06762422	    -12.46064001	     10.81514391	     25.07371254	    -10.97541668	     10.31976722	      1.85766819	      5.86082332	      0.00000000	      0.00000000	      0.00000000	     -0.00313241	      0.00000000	     -1.09050854	    -11.22272789	      6.04304790	     10.47801638
      0.01250000	     -1.02653195	     -7.71033815	     -8.36649099	     -0.86229045	      0.99097386	      0.27334225	    -24.97802371	     10.02496298	      5.19767828	     -3.73969469	      4.01601993	    -12.45788796	     10.81654937	     24.89587854	    -10.89639657	     10.33338074	      1.84605090	      5.83611634	      0.00000000	      0.00000000	      0.00000000	     -0.00353132	      0.00000000	     -1.15540286	    -11.05044973	      6.09359712	     10.48460142
      0.01666667	     -1.08682686	     -7.84452979	     -8.46387449	     -0.85645526	      0.99047294	      0.27309070	    -24.84985083	     10.07125766	      5.13876034	     -4.50471125	      3.74604055	    -12.52425118	     10.80801204	     24.58855502	    -11.00852561	     10.34089436	      2.06498782	      5.88228729	      0.00000000	      0.00000000	      0.00000000	     -0.00399865	      0.00000000	     -1.69652518	    -11.01812681	      6.23446309	     10.49815477
      0.02083333	     -1.20715745	     -8.02615465	     -8.61120722	     -0.85025130	      0.98982373	      0.27288259	    -24.70935074	     10.14486508	      5.13520457	     -5.23225345	      3.60975857	    -12.53175662	     10.93353383	     24.21596162	    -11.20615562	     10.30199352	      2.55040864	      6.16328176	      0.00000000	      0.00000000	      0.00000000	     -0.00459095	      0.00000000	     -1.87216155	    -10.87161141	      6.45525838	     10.65018843
      0.02500000	     -1.28723641	     -8.07255169	     -8.60920589	     -0.84385810	      0.98921221	      0.27253034	    -24.70944442	     10.13885618	      5.20104150	     -5.72012649	      3.43731815	    -12.51797293	     10.96519509	     23.94836682	    -11.17947453	     10.36025592	      2.69737510	      6.21594400	      0.00000000	      0.00000000	      0.00000000	     -0.00515424	      0.00000000	     -2.21086145	    -10.70944002	      6.49940361	     10.68956823
      0.02916667	     -1.37465953	     -8.16043840	     -8.64910652	     -0.83745704	      0.98862851	      0.27222713	    -24.62364543	     10.15769819	      5.18096259	     -6.36005394	      3.19199569	    -12.54352525	     10.99804707	     23.64721110	    -11.21996433	     10.39088949	      2.91120908	      6.32713381	      0.00000000	      0.00000000	      0.00000000	     -0.00576869	      0.00000000	     -2.51154375	    -10.56933950	      6.60431842	     10.73181291
      0.03333333	     -1.56569986	     -8.25345927	     -8.82587566	     -0.83075376	      0.98800122	      0.27213902	    -24.41868274	     10.14880377	      5.25729834	     -7.06932381	      3.00124293	    -12.49931918	     11.38086226	     23.21219125	    -11.37439332	     10.36203924	      3.65833879	      6.77591956	      0.00000000	      0.00000000	      0.00000000	     -0.00633869	      0.00000000	     -2.73215184	    -10.28049245	      6.70280508	     10.97399523
      0.03750000	     -1.61169778	     -8.28461769	     -8.80025716	     -0.82422173	      0.98753324	      0.27175682	    -24.39002592	     10.13159547	      5.27938101	     -7.64593158	      2.72216545	    -12.52677793	     11.38064430	     22.93385798	    -11.31610823	     10.45098980	      3.67959962	      6.76692562	      0.00000000	      0.00000000	      0.00000000	     -0.00700768	      0.00000000	     -3.03833204	    -10.16714156	      6.72566997	     10.95642376
      0.04166667	     -1.67128999	     -8.30880934	     -8.71079161	     -0.81731018	      0.98700530	      0.27128364	    -24.47080571	     10.12794349	      5.36439437	     -8.00645507	      2.60613093	    -12.52764670	     11.37707304	     22.67894696	    -11.21540978	     10.52466265	      3.64234697	      6.74938226	      0.00000000	      0.00000000	      0.00000000	     -0.00782363	      0.00000000	     -3.13076176	     -9.94983061	      6.76725232	     10.95257430
      0.04583333	     -1.76608244	     -8.40222289	     -8.80558943	     -0.81094840	      0.98666084	      0.27100571	    -24.09797839	     10.13929573	      5.12569159	     -9.13061521	      2.01019822	    -12.72687814	     11.40130699	     22.33234021	    -11.30026132	     10.57311625	      3.93988834	      6.94262230	      0.00000000	      0.00000000	      0.00000000	     -0.00851653	      0.00000000	     -3.52510443	     -9.85652184	      6.87312298	     10.91985959
      0.05000000	     -1.89523091	     -8.40101245	     -8.83194818	     -0.80422649	      0.98626215	      0.27069316	    -23.89139545	     10.08878080	      5.13319062	     -9.85672684	      1.63015146	    -12.83128434	     11.50973433	     22.04430343	    -11.26639211	     10.67968643	      4.15106721	      7.08234693	      0.00000000	      0.00000000	      0.00000000	     -0.00919162	      0.00000000	     -3.78848092	     -9.62085895	      6.87612699	     10.91439875
      0.05416667	     -1.96797553	     -8.37986923	     -8.79507583	     -0.79757613	      0.98598582	      0.27028051	    -23.74022834	     10.03764720	      5.18485723	    -10.56366157	      1.26266377	    -12.90131019	     11.53965376	     21.76733759	    -11.16960927	     10.79809575	      4.21555469	      7.14750073	      0.00000000	      0.00000000	      0.00000000	     -0.00988604	      0.00000000	     -4.04316812	     -9.46491044	      6.84953137	     10.88367290
